<?xml version="1.0" standalone="no"?>
<!DOCTYPE svg PUBLIC "-//W3C//DTD SVG 20010904//EN"
 "http://www.w3.org/TR/2001/REC-SVG-20010904/DTD/svg10.dtd">
<svg version="1.0" xmlns="http://www.w3.org/2000/svg"
 width="512.000000pt" height="512.000000pt" viewBox="0 0 512.000000 512.000000"
 preserveAspectRatio="xMidYMid meet">

<g transform="translate(0.000000,512.000000) scale(0.100000,-0.100000)"
fill="#000000" stroke="none">
<path d="M3120 5104 c-587 -83 -1088 -451 -1337 -982 -182 -388 -212 -843 -83
-1252 l30 -95 -834 -835 c-459 -459 -839 -845 -845 -857 -8 -15 -11 -172 -11
-505 0 -461 1 -484 20 -515 38 -63 38 -63 475 -63 317 0 402 3 428 14 41 18
303 282 317 319 5 16 10 102 10 193 l0 164 170 0 c237 0 251 9 260 160 l5 85
85 5 c148 9 160 26 160 240 l0 150 138 0 c75 0 153 4 172 10 26 7 90 65 245
220 l210 209 95 -29 c367 -116 784 -103 1141 35 468 181 846 571 1009 1040 61
175 88 317 97 505 27 597 -266 1172 -769 1509 -201 134 -417 221 -669 267
-123 22 -391 27 -519 8z m480 -258 c201 -36 401 -116 576 -232 153 -102 326
-282 431 -449 54 -85 131 -255 158 -350 44 -154 59 -258 59 -425 0 -252 -42
-430 -154 -655 -85 -170 -165 -278 -302 -410 -164 -158 -351 -271 -561 -339
-165 -54 -270 -70 -457 -70 -222 0 -336 23 -584 113 -93 35 -98 31 -351 -220
l-220 -218 -190 -3 c-211 -3 -227 -8 -265 -71 -17 -28 -20 -51 -20 -179 l0
-148 -73 0 c-130 0 -177 -47 -177 -177 l0 -72 -174 -3 c-159 -3 -177 -5 -203
-24 -50 -37 -53 -53 -53 -274 l0 -205 -92 -92 -93 -93 -282 0 -283 0 0 87 0
88 784 785 c615 616 785 792 791 816 8 40 -15 97 -47 117 -24 16 -45 20 -88
18 -19 -1 -193 -169 -725 -701 -385 -385 -704 -700 -708 -700 -4 0 -7 48 -7
108 l0 107 845 845 c664 664 849 854 861 886 14 38 14 44 -6 100 -95 261 -114
360 -114 584 0 115 5 192 17 255 57 292 187 549 382 754 134 139 258 232 424
316 270 135 601 183 901 131z"/>
<path d="M3768 4374 c-87 -21 -156 -60 -224 -128 -205 -205 -179 -537 56 -710
97 -72 221 -103 342 -86 255 36 439 281 400 532 -23 152 -122 288 -257 354
-110 54 -206 65 -317 38z m220 -271 c86 -49 126 -153 97 -249 -28 -94 -110
-154 -210 -154 -122 0 -215 93 -215 216 0 171 179 274 328 187z"/>
</g>
</svg>
